<?xml version="1.0" encoding="UTF-8"?>
<svg id="Layer_1" data-name="Layer 1" xmlns="http://www.w3.org/2000/svg" viewBox="0 0 300 300">
  <defs>
    <style>
      .cls-1 {
        fill: #70315e;
      }

      .cls-1, .cls-2 {
        stroke-width: 0px;
      }

      .cls-2 {
        fill: #282444;
      }
    </style>
  </defs>
  <g>
    <circle class="cls-2" cx="84.97" cy="153.39" r="17.04"/>
    <path class="cls-2" d="m96.7,212.61l-1.06.93c-6.1,5.36-15.23,5.36-21.34,0l-1.06-.93c-3.5-3.07-5.51-7.5-5.51-12.16v-15.6c0-4.66,2.01-9.09,5.51-12.16l1.06-.93c6.1-5.36,15.23-5.36,21.34,0l1.06.93c3.5,3.07,5.51,7.5,5.51,12.16v15.6c0,4.66-2.01,9.09-5.51,12.16Z"/>
    <rect class="cls-2" x="67.73" y="187.67" width="34.48" height="35.24"/>
  </g>
  <g>
    <circle class="cls-1" cx="118.37" cy="139.48" r="20.45"/>
    <path class="cls-1" d="m133.55,209.58l-4.51,3.96c-6.1,5.36-15.23,5.36-21.34,0l-4.51-3.96c-3.5-3.07-5.51-7.5-5.51-12.16v-21.65c0-4.66,2.01-9.09,5.51-12.16l4.51-3.96c6.1-5.36,15.23-5.36,21.34,0l4.51,3.96c3.5,3.07,5.51,7.5,5.51,12.16v21.65c0,4.66-2.01,9.09-5.51,12.16Z"/>
    <rect class="cls-1" x="97.68" y="180.62" width="41.37" height="42.29"/>
  </g>
  <g>
    <circle class="cls-2" cx="157.76" cy="126.01" r="23.76"/>
    <path class="cls-2" d="m176.28,206.65l-7.85,6.89c-6.1,5.36-15.23,5.36-21.34,0l-7.85-6.89c-3.5-3.07-5.51-7.5-5.51-12.16v-27.51c0-4.66,2.01-9.09,5.51-12.16l7.85-6.89c6.1-5.36,15.23-5.36,21.34,0l7.85,6.89c3.5,3.07,5.51,7.5,5.51,12.16v27.51c0,4.66-2.01,9.09-5.51,12.16Z"/>
    <rect class="cls-2" x="133.73" y="173.79" width="48.06" height="49.12"/>
  </g>
  <g>
    <circle class="cls-1" cx="204.71" cy="111.74" r="27.25"/>
    <path class="cls-1" d="m226.76,203.55l-11.39,9.99c-6.1,5.36-15.23,5.36-21.34,0l-11.39-9.99c-3.5-3.07-5.51-7.5-5.51-12.16v-33.72c0-4.66,2.01-9.09,5.51-12.16l11.39-9.99c6.1-5.36,15.23-5.36,21.34,0l11.39,9.99c3.5,3.07,5.51,7.5,5.51,12.16v33.72c0,4.66-2.01,9.09-5.51,12.16Z"/>
    <rect class="cls-1" x="177.14" y="166.56" width="55.13" height="56.35"/>
  </g>
</svg>