<?xml version="1.0" encoding="UTF-8"?>
<svg id="Layer_1" data-name="Layer 1" xmlns="http://www.w3.org/2000/svg" viewBox="0 0 300 300">
  <defs>
    <style>
      .cls-1 {
        fill: #70315e;
      }

      .cls-1, .cls-2 {
        stroke-width: 0px;
      }

      .cls-2 {
        fill: #282444;
      }
    </style>
  </defs>
  <g>
    <circle class="cls-2" cx="124.14" cy="125.33" r="23.92"/>
    <path class="cls-2" d="m142.82,206.5l-8.02,7.04c-6.1,5.36-15.23,5.36-21.34,0l-8.02-7.04c-3.5-3.07-5.51-7.5-5.51-12.16v-27.81c0-4.66,2.01-9.09,5.51-12.16l8.02-7.04c6.1-5.36,15.23-5.36,21.34,0l8.02,7.04c3.5,3.07,5.51,7.5,5.51,12.16v27.81c0,4.66-2.01,9.09-5.51,12.16Z"/>
    <rect class="cls-2" x="99.94" y="173.44" width="48.39" height="49.46"/>
  </g>
  <g>
    <circle class="cls-1" cx="171.02" cy="105.81" r="28.71"/>
    <path class="cls-1" d="m194.55,202.26l-12.86,11.29c-6.1,5.36-15.23,5.36-21.34,0l-12.86-11.29c-3.5-3.07-5.51-7.5-5.51-12.16v-36.31c0-4.66,2.01-9.09,5.51-12.16l12.86-11.29c6.1-5.36,15.23-5.36,21.34,0l12.86,11.29c3.5,3.07,5.51,7.5,5.51,12.16v36.31c0,4.66-2.01,9.09-5.51,12.16Z"/>
    <rect class="cls-1" x="141.99" y="163.55" width="58.08" height="59.36"/>
  </g>
</svg>